<?xml version="1.0" encoding="iso-8859-1"?>
<!-- Generator: Adobe Illustrator 19.0.0, SVG Export Plug-In . SVG Version: 6.00 Build 0)  -->
<svg version="1.1" id="Layer_1" xmlns="http://www.w3.org/2000/svg" xmlns:xlink="http://www.w3.org/1999/xlink" x="0px" y="0px"
	 viewBox="0 0 511.349 511.349" style="enable-background:new 0 0 511.349 511.349;" xml:space="preserve">
<path style="fill:#FFB74D;" d="M424.784,23.749l-401.6,400c-26.4-31.2-24.8-78.4,4.8-108l288-288
	C345.584-2.251,393.584-3.451,424.784,23.749z"/>
<path style="fill:#BF360C;" d="M459.984,51.749c6.4,6.4,9.6,14.8,9.6,24c-0.4,9.6-4,18.4-10.8,25.2l-356.8,356.8
	c-7.2,7.2-16.4,10.8-26,10.8c-9.2,0-17.2-3.2-23.6-9.6c-6.4-6.4-9.6-14.8-9.6-24c0-9.6,4-18.4,10.8-25.6l300-300l65.2-64.4l17.6-3.2
	C445.584,42.549,453.584,45.749,459.984,51.749z"/>
<path style="fill:#FFB74D;" d="M487.984,86.949c27.2,31.2,26,79.2-4,109.2l-288,288c-29.6,29.6-77.6,31.2-109.2,4L487.984,86.949z"
	/>
<path style="fill:#E64A19;" d="M473.984,37.749c20.8,20.8,20.4,56-1.6,77.6l-356.8,356.8c-21.6,21.6-56.8,22.4-77.6,1.6
	c-21.2-20.8-20.4-56,1.6-77.6l356.8-356.8C417.984,17.349,453.184,16.949,473.984,37.749z"/>
<g>
	<path style="fill:#FFD54F;" d="M442.784,85.749l-68,62c3.6-13.6-1.2-26.4,13.6-41.2C407.584,87.349,423.984,101.749,442.784,85.749
		z"/>
	<path style="fill:#FFD54F;" d="M345.584,174.149l29.2-26.4c-1.6,5.2-4.4,10.4-9.6,16
		C358.384,170.549,351.984,172.949,345.584,174.149z"/>
	<path style="fill:#FFD54F;" d="M345.584,174.149l-49.6,45.2c1.2-10.4,0.4-21.2,12-32.4
		C321.184,173.749,333.184,176.549,345.584,174.149z"/>
	<path style="fill:#FFD54F;" d="M255.984,255.749l40-36.4c-0.8,8-2.8,16-11.2,24.8C274.384,254.149,265.184,254.949,255.984,255.749
		z"/>
	<path style="fill:#FFD54F;" d="M255.984,255.749l-40,36.4c0.8-8,2.4-16,11.2-24.8C237.184,257.349,246.784,256.549,255.984,255.749
		z"/>
	<path style="fill:#FFD54F;" d="M166.384,337.349l49.6-45.2c-1.2,10.4-0.4,21.2-12,32.4
		C190.784,337.749,178.784,334.949,166.384,337.349z"/>
	<path style="fill:#FFD54F;" d="M166.384,337.349l-29.2,26.4c1.6-5.2,4-10.4,9.6-16
		C153.584,340.949,159.984,338.549,166.384,337.349z"/>
	<path style="fill:#FFD54F;" d="M69.184,425.749l68-62c-4,13.6,1.2,26.4-13.6,41.2C104.384,424.149,87.984,409.749,69.184,425.749z"
		/>
</g>
<path d="M22.784,427.349c-1.2,0-2.4-0.4-3.2-1.6c-27.6-33.2-25.6-82.8,4.8-113.2l288-288c31.2-31.2,81.2-32.8,114.4-4
	c1.6,1.6,2,4,0.4,5.6s-4,2-5.6,0.4c-30-26-75.6-24.4-103.6,3.6l-288,288c-27.6,27.6-29.6,72.8-4.4,102.4c1.6,1.6,1.2,4.4-0.4,5.6
	C24.784,427.349,23.984,427.349,22.784,427.349z"/>
<path d="M139.584,511.349c-19.6,0-39.2-6.8-55.2-20.4c-1.6-1.6-2-4-0.4-5.6s4-2,5.6-0.4c30,26,75.6,24.4,103.6-3.6l288-288
	c28-28,29.6-73.6,3.6-103.6c-1.6-1.6-1.2-4,0.4-5.6s4-1.2,5.6,0.4c28.8,33.2,26.8,83.2-4,114.4l-288,288
	C182.784,502.949,161.184,511.349,139.584,511.349z"/>
<path d="M75.584,492.949c-15.2,0-29.6-6-40.4-16.4c-10.8-10.8-16.4-24.8-16.4-40.4c0-16,6.4-31.6,18-43.2l356.8-356.8
	c23.2-23.2,60.8-24,83.6-1.6l0,0c22.4,22.4,22,60-1.6,83.2l-356.8,356.8c-11.2,11.2-26,17.6-42,18
	C76.384,492.949,75.984,492.949,75.584,492.949z M436.384,26.549c-13.2,0-26.8,5.2-37.2,15.6l-356.8,356.8
	c-10,10-15.6,23.2-15.6,37.2c0,13.2,5.2,25.6,14,34.8c9.2,9.2,22,14.4,35.6,14s26.8-5.6,36.4-15.6l356.8-356.8
	c20.4-20.4,20.8-52.4,1.6-72C461.584,30.949,449.184,26.549,436.384,26.549z"/>
<path d="M397.584,70.149c-1.2,0-2-0.4-2.8-1.2c-1.6-1.6-1.6-4,0-5.6l12.8-12.8c7.6-7.6,18-12,28.8-12c2.4,0,4,1.6,4,4s-1.6,4-4,4
	c-8.8,0-16.8,3.6-23.2,9.6l-12.8,12.8C399.584,69.749,398.784,70.149,397.584,70.149z"/>
<path d="M66.384,432.149c-1.2,0-2-0.4-2.8-1.2c-1.6-1.6-1.6-4,0-5.6c0.8-0.8,2-2,2.8-2.8c10-8.4,19.6-9.2,28-10
	c9.2-0.8,17.2-1.6,26-10.4s9.6-16.8,10.4-26c0.4-4.4,0.8-8.8,2-13.2c1.6-6.4,5.2-12.4,10.8-17.6c6.4-6.4,13.2-10,21.6-11.6
	c3.2-0.8,6.4-0.8,9.6-1.2c9.2-0.8,17.2-1.6,26-10.4c9.2-9.2,9.6-16.8,10.4-26c0-1.2,0.4-2.8,0.4-4c0.8-8.4,2.8-17.6,12.4-27.2
	c11.2-11.2,21.6-12,31.2-12.8c9.2-0.8,17.2-1.6,26-10.4c8-8,9.6-15.6,10-22.4c0-1.2,0.4-2.4,0.4-3.6c0.8-9.2,1.6-20,12.8-31.2
	s21.6-12,31.2-12.8c3.2-0.4,6-0.4,8.8-1.2c4.4-0.8,10.8-2.8,17.2-9.6c4.4-4.4,7.2-9.2,8.8-14.4c1.2-4,1.2-7.6,1.6-11.6
	c0.8-9.2,1.6-20,12.8-31.2s21.6-12,31.2-12.8c8.4-0.8,15.6-1.2,23.6-8.4c0.8-0.8,1.6-1.6,2.4-2.4c1.6-1.6,4-1.6,5.6,0s1.6,4,0,5.6
	c-0.8,0.8-2,2-2.8,2.8c-10,8.4-19.6,9.2-28,10c-9.2,0.8-17.2,1.6-26,10.4c-9.2,9.2-9.6,16.8-10.4,26c-0.4,4.4-0.8,8.8-2,13.2
	c-2,6.8-5.2,12.4-10.8,18c-6.4,6.4-13.2,10-21.6,11.6c-3.2,0.8-6.4,0.8-9.6,1.2c-9.2,0.8-17.2,1.6-26,10.4
	c-9.2,9.2-9.6,16.8-10.4,26c0,1.2-0.4,2.8-0.4,4c-0.8,8-2.4,17.2-12.4,27.2c-11.2,11.2-21.6,12-30.8,12.8
	c-8.8,0.8-17.2,1.6-26.4,10.4c-8,8-9.6,15.6-10,22.4c0,1.2-0.4,2.8-0.4,4c-0.8,9.2-1.6,20-12.8,31.2s-21.6,12-31.2,12.8
	c-3.2,0.4-6,0.4-8.8,1.2c-4.4,0.8-10.8,2.8-17.2,9.6c-4.4,4.4-7.2,9.2-8.8,14.4c-1.2,4-1.6,7.6-1.6,12c-0.8,9.2-1.6,20-12.8,31.2
	s-21.6,12-31.2,12.8c-8.4,0.8-15.6,1.2-23.6,8.4c-0.8,0.8-1.6,1.6-2.4,2.4C68.384,431.749,67.584,432.149,66.384,432.149z"/>
<path d="M75.584,472.949c-10,0-19.2-3.6-26.4-10.8c-7.2-7.2-10.8-16.8-10.8-27.2c0-10.4,4.4-20.4,12-28l300-300c1.6-1.6,4-1.6,5.6,0
	s1.6,4,0,5.6l-300,300c-6,6-9.6,14-9.6,22.8c0,8,2.8,15.6,8.4,21.2c5.2,5.2,12.8,8.4,20.4,8.4c8.8,0,16.8-3.6,23.2-9.6l356.8-356.8
	c6-6,9.6-14,9.6-22.8c0-8-2.8-15.6-8.4-21.2c-5.2-5.2-12.8-8.4-20.4-8.4c-2.4,0-4-1.6-4-4s1.6-4,4-4c10,0,19.2,3.6,26,10.8
	c7.2,6.8,10.8,16.4,10.8,26.8c-0.4,10.4-4.4,20.4-12,28l-356.8,356.8C96.784,468.949,86.384,472.949,75.584,472.949z"/>
<g>
</g>
<g>
</g>
<g>
</g>
<g>
</g>
<g>
</g>
<g>
</g>
<g>
</g>
<g>
</g>
<g>
</g>
<g>
</g>
<g>
</g>
<g>
</g>
<g>
</g>
<g>
</g>
<g>
</g>
</svg>
