<?xml version="1.0" encoding="iso-8859-1"?>
<!-- Generator: Adobe Illustrator 18.0.0, SVG Export Plug-In . SVG Version: 6.00 Build 0)  -->
<!DOCTYPE svg PUBLIC "-//W3C//DTD SVG 1.1//EN" "http://www.w3.org/Graphics/SVG/1.1/DTD/svg11.dtd">
<svg version="1.1" id="Capa_1" xmlns="http://www.w3.org/2000/svg" xmlns:xlink="http://www.w3.org/1999/xlink" x="0px" y="0px"
	 viewBox="0 0 297.5 297.5" style="enable-background:new 0 0 297.5 297.5;" xml:space="preserve">
<g id="XMLID_9_">
	<g>
		<path style="fill:#DE6051;" d="M253.918,38.92c1.05,3.1,0.67,6.57-1.08,9.77c-2.33,4.24-6.68,7.42-11.95,8.71
			c-0.01,0-0.01,0-0.01,0c-60.27,14.83-123.98,14.83-184.26,0c-5.27-1.29-9.63-4.47-11.95-8.71c-1.75-3.2-2.14-6.67-1.08-9.77
			c2.19-6.46,8.67-10.61,15.74-10.61c1.43,0,2.88,0.17,4.33,0.52c55.67,13.7,114.52,13.7,170.17,0.01
			C242.458,26.73,251.278,31.16,253.918,38.92z"/>
		<path d="M272.798,32.5c2.88,8.45,2.01,17.6-2.46,25.77c-5.01,9.14-14.01,15.88-24.7,18.51c-16.24,3.99-32.73,6.96-49.33,8.91
			c-4.29,18.41-19.01,32.87-37.58,36.74v164.85c0,5.5-4.47,9.97-9.98,9.97s-9.97-4.47-9.97-9.97V122.42
			c-18.57-3.87-33.3-18.32-37.58-36.73c-16.61-1.95-33.09-4.92-49.34-8.91c-10.68-2.63-19.69-9.37-24.69-18.51
			c-4.47-8.17-5.35-17.32-2.47-25.78c5.93-17.45,25.12-27.57,43.71-23.03c10.4,2.55,20.91,4.6,31.5,6.15v-5.39
			c0-5.5,4.47-9.97,9.98-9.97c5.5,0,9.97,4.47,9.97,9.97v7.69c19.22,1.65,38.57,1.65,57.79,0.01v-7.7c0-5.5,4.46-9.97,9.97-9.97
			c5.51,0,9.97,4.47,9.97,9.97v5.39c10.59-1.55,21.1-3.59,31.49-6.15C247.668,4.92,266.868,15.04,272.798,32.5z M252.838,48.69
			c1.75-3.2,2.13-6.67,1.08-9.77c-2.64-7.76-11.46-12.19-20.09-10.08c-55.65,13.69-114.5,13.69-170.17-0.01
			c-1.45-0.35-2.9-0.52-4.33-0.52c-7.07,0-13.55,4.15-15.74,10.61c-1.06,3.1-0.67,6.57,1.08,9.77c2.32,4.24,6.68,7.42,11.95,8.71
			c60.28,14.83,123.99,14.83,184.26,0c0,0,0,0,0.01,0C246.158,56.11,250.508,52.93,252.838,48.69z M148.748,103.5
			c11.24,0,21-6.45,25.77-15.85c-8.58,0.55-17.17,0.82-25.77,0.82c-8.59,0-17.19-0.27-25.77-0.82
			C127.748,97.05,137.508,103.5,148.748,103.5z"/>
	</g>
	<g>
	</g>
</g>
<g>
</g>
<g>
</g>
<g>
</g>
<g>
</g>
<g>
</g>
<g>
</g>
<g>
</g>
<g>
</g>
<g>
</g>
<g>
</g>
<g>
</g>
<g>
</g>
<g>
</g>
<g>
</g>
<g>
</g>
</svg>
